<svg id="Objects" xmlns="http://www.w3.org/2000/svg" xmlns:xlink="http://www.w3.org/1999/xlink" viewBox="0 0 177 177"><defs><style>.cls-1,.cls-6,.cls-7{fill:none;}.cls-2{fill:url(#radial-gradient);}.cls-3{fill:url(#radial-gradient-2);}.cls-4{clip-path:url(#clip-path);}.cls-5{fill:#232322;}.cls-6,.cls-7{stroke:#232322;stroke-miterlimit:10;}.cls-7{stroke-linecap:round;stroke-width:2px;}.cls-12,.cls-8{fill:#5e5e5d;}.cls-11,.cls-8{opacity:0.5;}.cls-9{fill:#fff;}.cls-10{fill:#261a00;}</style><radialGradient id="radial-gradient" cx="-215.14" cy="69.81" r="42.32" gradientTransform="translate(391.63 133.38) scale(1.41 0.19)" gradientUnits="userSpaceOnUse"><stop offset="0" stop-color="#070500"/><stop offset="0.13" stop-color="#080600" stop-opacity="0.8"/><stop offset="1" stop-color="#0e0c00" stop-opacity="0"/></radialGradient><radialGradient id="radial-gradient-2" cx="87.66" cy="66.97" r="84.84" gradientUnits="userSpaceOnUse"><stop offset="0" stop-color="#fff"/><stop offset="0.4" stop-color="#fbfbfb"/><stop offset="0.46" stop-color="#f1f1f1"/><stop offset="0.55" stop-color="#d8d8d8"/><stop offset="0.67" stop-color="#aeaeae"/><stop offset="0.7" stop-color="#a1a1a1"/><stop offset="0.74" stop-color="#afafaf"/><stop offset="0.92" stop-color="#e9e9e9"/><stop offset="1" stop-color="#fff"/></radialGradient><clipPath id="clip-path"><circle id="_Trazado_de_recorte_" data-name="&lt;Trazado de recorte&gt;" class="cls-1" cx="87.11" cy="83.3" r="61.59"/></clipPath></defs><title>happy</title><g id="_Grupo_" data-name="&lt;Grupo&gt;"><path id="_Trazado_" data-name="&lt;Trazado&gt;" class="cls-2" d="M158.48,146.74c0,4.72-31.33,8.54-70,8.54s-70-3.82-70-8.54,31.33-8.55,70-8.55S158.48,142,158.48,146.74Z"/><circle id="_Trazado_2" data-name="&lt;Trazado&gt;" class="cls-3" cx="87.11" cy="83.3" r="61.59"/><g id="_Recortar_grupo_" data-name="&lt;Recortar grupo&gt;"><g class="cls-4"><g id="_Grupo_2" data-name="&lt;Grupo&gt;"><path id="_Trazado_3" data-name="&lt;Trazado&gt;" class="cls-5" d="M43.37,46.13,32.29,48.86c-10,21.81-8.35,33.4-8.35,33.4l6.14,5L45,70.16Z"/><path id="_Trazado_4" data-name="&lt;Trazado&gt;" class="cls-5" d="M142.29,48.86l-11.08-2.73-1.62,24L144.5,87.27l6.14-5S152.34,70.67,142.29,48.86Z"/><path id="_Trazado_5" data-name="&lt;Trazado&gt;" class="cls-5" d="M112.25,120.07,101,139.81l6.76,4.13s11.5-2.23,28.76-18.94l-1.1-11.36Z"/><path id="_Trazado_6" data-name="&lt;Trazado&gt;" class="cls-5" d="M39.93,113.64,38.83,125c17.26,16.71,28.76,18.94,28.76,18.94l6.76-4.13L63.14,120.07Z"/><path id="_Trazado_7" data-name="&lt;Trazado&gt;" class="cls-5" d="M103.92,20.67C80.15,17.19,69.51,22.1,69.51,22.1l-3.07,7.3,20.63,9.47,22.59-8.34Z"/><polygon id="_Trazado_8" data-name="&lt;Trazado&gt;" class="cls-5" points="85.95 37.16 87.39 64.63 88.05 37.16 85.95 37.16"/><line id="_Trazado_9" data-name="&lt;Trazado&gt;" class="cls-6" x1="40.67" y1="48.46" x2="69.96" y2="26.92"/><line id="_Trazado_10" data-name="&lt;Trazado&gt;" class="cls-6" x1="29.32" y1="84.51" x2="41.78" y2="117.37"/><line id="_Trazado_11" data-name="&lt;Trazado&gt;" class="cls-6" x1="71.13" y1="139.67" x2="106.13" y2="139.67"/><line id="_Trazado_12" data-name="&lt;Trazado&gt;" class="cls-6" x1="145.32" y1="84.01" x2="133.74" y2="117.8"/><line id="_Trazado_13" data-name="&lt;Trazado&gt;" class="cls-6" x1="106.97" y1="29.15" x2="133.74" y2="48.46"/><g id="_Grupo_3" data-name="&lt;Grupo&gt;"><polygon class="cls-5" points="59.33 122.77 73.18 107.71 60.87 124.05 59.33 122.77"/></g><g id="_Grupo_4" data-name="&lt;Grupo&gt;"><polygon class="cls-5" points="114.71 124.05 102.4 107.71 116.25 122.77 114.71 124.05"/></g><g id="_Grupo_5" data-name="&lt;Grupo&gt;"><polygon class="cls-5" points="42.93 67.92 51.74 74.18 41.93 69.65 42.93 67.92"/></g><g id="_Grupo_6" data-name="&lt;Grupo&gt;"><polygon class="cls-5" points="133.11 69.65 123.3 74.18 132.11 67.92 133.11 69.65"/></g></g></g></g><g id="_Grupo_7" data-name="&lt;Grupo&gt;"><path class="cls-5" d="M86.67,22.45a61,61,0,1,1-61,61,61,61,0,0,1,61-61m0-3a64,64,0,1,0,64,64,64.05,64.05,0,0,0-64-64Z"/></g></g><path id="_Trazado_14" data-name="&lt;Trazado&gt;" class="cls-7" d="M95.12,71.24c4.74-10,19.39-10,24.14,0"/><g id="_Grupo_8" data-name="&lt;Grupo&gt;"><path id="_Trazado_15" data-name="&lt;Trazado&gt;" class="cls-8" d="M79.65,70.16c0,9.49-5.29,17.18-11.82,17.18S56,79.65,56,70.16,61.3,53,67.83,53,79.65,60.68,79.65,70.16Z"/><g id="_Grupo_9" data-name="&lt;Grupo&gt;"><ellipse id="_Trazado_16" data-name="&lt;Trazado&gt;" class="cls-9" cx="67.83" cy="68.92" rx="9.48" ry="13.77"/></g><ellipse id="_Trazado_17" data-name="&lt;Trazado&gt;" class="cls-10" cx="71.56" cy="68.92" rx="3.54" ry="5.15"/><path id="_Trazado_18" data-name="&lt;Trazado&gt;" class="cls-9" d="M72.1,65A2.14,2.14,0,1,1,70,62.86,2.14,2.14,0,0,1,72.1,65Z"/></g><g id="_Grupo_10" data-name="&lt;Grupo&gt;"><g id="_Grupo_11" data-name="&lt;Grupo&gt;" class="cls-11"><path id="_Trazado_19" data-name="&lt;Trazado&gt;" class="cls-12" d="M111.79,80a1.2,1.2,0,0,0-.6.47,38.67,38.67,0,0,1-41.78,15,1.24,1.24,0,0,0-.67,2.39,41.16,41.16,0,0,0,44.49-16A1.24,1.24,0,0,0,111.79,80Z"/></g><path id="_Trazado_20" data-name="&lt;Trazado&gt;" class="cls-7" d="M69.49,97.83a39.79,39.79,0,0,0,43.14-15.54"/></g></svg>